MOTORING: F1: Grand Prix

On: BBC 1    


Date: Sunday 12th May 2013 (Already shown)
 

Length : From race start and post race show 

 Spain.


 Suzi Perry hosts live coverage of the Spanish Grand Prix. The Circuit de Catalunya has not been especially kind to British drivers over the years. The last 18 races there have produced just one British winner - Jenson Button in 2009. Lewis Hamilton never won in Spain during his time with McLaren, so the 28-year-old will be hoping for a change in luck with new team Mercedes. However, the man to beat could once again be German star Sebastian Vettel. The Red Bull driver topped the podium in Barcelona in 2011, and is targeting a fourth successive world title this season.


 Format            : AVI at 1 342 Kbps

 Video #0          : MPEG-4 Visual at 1 205 Kbps
 Aspect            : 608 x 336 (1.810) at 25.000 fps

 Audio #0          : MPEG Audio at 128 Kbps
 Infos             : 2 channels, 48.0 KHz

Technical Information :

Video
ID                             : 0
Format                         : MPEG-4 Visual
Format profile                 : Advanced Simple@L5
Format settings, BVOP          : 2
Format settings, QPel          : No
Format settings, GMC           : No warppoints
Format settings, Matrix        : Default (H.263)
Muxing mode                    : Packed bitstream
Codec ID                       : XVID
Codec ID/Hint                  : XviD
Bit rate                       : 1 426 Kbps
Width                          : 608 pixels
Height                         : 336 pixels
Display aspect ratio           : 16:9
Frame rate                     : 25.000 fps
Color space                    : YUV
Chroma subsampling             : 4:2:0
Bit depth                      : 8 bits
Scan type                      : Progressive
Compression mode               : Lossy
Bits/(Pixel*Frame)             : 0.279
Stream size                    : 423 MiB (91%)
Writing library                : XviD 1.2.1 (UTC 2008-12-04)

Audio
ID                             : 1
Format                         : MPEG Audio
Format version                 : Version 1
Format profile                 : Layer 3
Mode                           : Joint stereo
Mode extension                 : MS Stereo
Codec ID                       : 55
Codec ID/Hint                  : MP3

Bit rate mode                  : Constant
Bit rate                       : 128 Kbps
Channel(s)                     : 2 channels
Sampling rate                  : 48.0 KHz
Compression mode               : Lossy
Stream size                    : 38.0 MiB (8%)
Alignment                      : Aligned on interleaves
Interleave, duration           : 40 ms (1.00 video frame)
Interleave, preload duration   : 504 ms


Screens : 
 
http://i.imgur.com/8zr3tnG.jpg
 
http://i.imgur.com/hV0aCJa.jpg
 
http://i.imgur.com/4xWnm4J.jpg